<svg width="200" height="200" viewBox="0 0 200 200" xmlns="http://www.w3.org/2000/svg">
  <defs>
    <linearGradient id="gradient" x1="0%" y1="0%" x2="100%" y2="100%">
      <stop offset="0%" style="stop-color:#34D399;stop-opacity:1" />
      <stop offset="100%" style="stop-color:#10B981;stop-opacity:1" />
    </linearGradient>
  </defs>
  
  <!-- Background circle -->
  <circle cx="100" cy="100" r="90" fill="url(#gradient)" />
  
  <!-- Apple icon -->
  <path d="M100 40 C85 40 75 50 75 65 C75 75 80 85 90 90 L90 120 C90 130 95 135 105 135 L105 135 C115 135 120 130 120 120 L120 90 C130 85 135 75 135 65 C135 50 125 40 110 40 C105 40 100 42 100 45 C100 42 95 40 90 40 Z" fill="white" opacity="0.9"/>
  
  <!-- Leaf -->
  <path d="M110 35 C115 30 125 32 130 40 C125 45 115 43 110 35 Z" fill="white" opacity="0.7"/>
  
  <!-- Chat bubble -->
  <circle cx="140" cy="60" r="25" fill="white" opacity="0.8"/>
  <path d="M125 75 L130 85 L135 75 Z" fill="white" opacity="0.8"/>
  
  <!-- Plus sign in bubble -->
  <line x1="135" y1="55" x2="145" y2="55" stroke="#10B981" stroke-width="3" stroke-linecap="round"/>
  <line x1="140" y1="50" x2="140" y2="60" stroke="#10B981" stroke-width="3" stroke-linecap="round"/>
  
  <!-- Bottom text curve -->
  <path id="textcurve" d="M 50 150 Q 100 130 150 150" fill="none"/>
  <text font-family="Arial, sans-serif" font-size="16" font-weight="bold" fill="white">
    <textPath href="#textcurve" startOffset="50%" text-anchor="middle">
      FitTrck
    </textPath>
  </text>
</svg>